{
	"asset":{
		"generator":"Khronos glTF Blender I/O v5.1.19",
		"version":"2.0"
	},
	"scene":0,
	"scenes":[
		{
			"name":"Scene",
			"nodes":[
				0
			]
		}
	],
	"nodes":[
		{
			"mesh":0,
			"name":"Bridge"
		}
	],
	"meshes":[
		{
			"name":"Cube.002",
			"primitives":[
				{
					"attributes":{
						"POSITION":0,
						"NORMAL":1,
						"TEXCOORD_0":2,
						"TANGENT":3
					},
					"indices":4
				}
			]
		}
	],
	"accessors":[
		{
			"bufferView":0,
			"componentType":5126,
			"count":1525,
			"max":[
				3.216891288757324,
				1.937643051147461,
				11.18049430847168
			],
			"min":[
				-2.619729995727539,
				-0.21857500076293945,
				0.05914042517542839
			],
			"type":"VEC3"
		},
		{
			"bufferView":1,
			"componentType":5126,
			"count":1525,
			"type":"VEC3"
		},
		{
			"bufferView":2,
			"componentType":5126,
			"count":1525,
			"type":"VEC2"
		},
		{
			"bufferView":3,
			"componentType":5126,
			"count":1525,
			"type":"VEC4"
		},
		{
			"bufferView":4,
			"componentType":5123,
			"count":4404,
			"type":"SCALAR"
		}
	],
	"bufferViews":[
		{
			"buffer":0,
			"byteLength":18300,
			"byteOffset":0,
			"target":34962
		},
		{
			"buffer":0,
			"byteLength":18300,
			"byteOffset":18300,
			"target":34962
		},
		{
			"buffer":0,
			"byteLength":12200,
			"byteOffset":36600,
			"target":34962
		},
		{
			"buffer":0,
			"byteLength":24400,
			"byteOffset":48800,
			"target":34962
		},
		{
			"buffer":0,
			"byteLength":8808,
			"byteOffset":73200,
			"target":34963
		}
	],
	"buffers":[
		{
			"byteLength":82008,
			"uri":"Bridge.bin"
		}
	]
}
