{
	"asset":{
		"generator":"Khronos glTF Blender I/O v5.1.19",
		"version":"2.0"
	},
	"scene":0,
	"scenes":[
		{
			"name":"Scene",
			"nodes":[
				0
			]
		}
	],
	"nodes":[
		{
			"mesh":0,
			"name":"Cage"
		}
	],
	"meshes":[
		{
			"name":"Circle.002",
			"primitives":[
				{
					"attributes":{
						"POSITION":0,
						"NORMAL":1,
						"TEXCOORD_0":2,
						"TANGENT":3
					},
					"indices":4
				}
			]
		}
	],
	"accessors":[
		{
			"bufferView":0,
			"componentType":5126,
			"count":21062,
			"max":[
				0.5583662390708923,
				0.0009785003494471312,
				0.5584284663200378
			],
			"min":[
				-0.558078944683075,
				-3.711902379989624,
				-0.5580180287361145
			],
			"type":"VEC3"
		},
		{
			"bufferView":1,
			"componentType":5126,
			"count":21062,
			"type":"VEC3"
		},
		{
			"bufferView":2,
			"componentType":5126,
			"count":21062,
			"type":"VEC2"
		},
		{
			"bufferView":3,
			"componentType":5126,
			"count":21062,
			"type":"VEC4"
		},
		{
			"bufferView":4,
			"componentType":5123,
			"count":32556,
			"type":"SCALAR"
		}
	],
	"bufferViews":[
		{
			"buffer":0,
			"byteLength":252744,
			"byteOffset":0,
			"target":34962
		},
		{
			"buffer":0,
			"byteLength":252744,
			"byteOffset":252744,
			"target":34962
		},
		{
			"buffer":0,
			"byteLength":168496,
			"byteOffset":505488,
			"target":34962
		},
		{
			"buffer":0,
			"byteLength":336992,
			"byteOffset":673984,
			"target":34962
		},
		{
			"buffer":0,
			"byteLength":65112,
			"byteOffset":1010976,
			"target":34963
		}
	],
	"buffers":[
		{
			"byteLength":1076088,
			"uri":"Cage.bin"
		}
	]
}
