{
	"asset":{
		"generator":"Khronos glTF Blender I/O v5.1.19",
		"version":"2.0"
	},
	"scene":0,
	"scenes":[
		{
			"name":"Scene",
			"nodes":[
				0
			]
		}
	],
	"nodes":[
		{
			"mesh":0,
			"name":"Castle"
		}
	],
	"meshes":[
		{
			"name":"Castle.002",
			"primitives":[
				{
					"attributes":{
						"POSITION":0,
						"NORMAL":1,
						"TEXCOORD_0":2,
						"TANGENT":3
					},
					"indices":4
				}
			]
		}
	],
	"accessors":[
		{
			"bufferView":0,
			"componentType":5126,
			"count":36897,
			"max":[
				35.20149230957031,
				31.299678802490234,
				4.1658453941345215
			],
			"min":[
				-24.74105453491211,
				-0.04808083921670914,
				-50.966434478759766
			],
			"type":"VEC3"
		},
		{
			"bufferView":1,
			"componentType":5126,
			"count":36897,
			"type":"VEC3"
		},
		{
			"bufferView":2,
			"componentType":5126,
			"count":36897,
			"type":"VEC2"
		},
		{
			"bufferView":3,
			"componentType":5126,
			"count":36897,
			"type":"VEC4"
		},
		{
			"bufferView":4,
			"componentType":5123,
			"count":41580,
			"type":"SCALAR"
		}
	],
	"bufferViews":[
		{
			"buffer":0,
			"byteLength":442764,
			"byteOffset":0,
			"target":34962
		},
		{
			"buffer":0,
			"byteLength":442764,
			"byteOffset":442764,
			"target":34962
		},
		{
			"buffer":0,
			"byteLength":295176,
			"byteOffset":885528,
			"target":34962
		},
		{
			"buffer":0,
			"byteLength":590352,
			"byteOffset":1180704,
			"target":34962
		},
		{
			"buffer":0,
			"byteLength":83160,
			"byteOffset":1771056,
			"target":34963
		}
	],
	"buffers":[
		{
			"byteLength":1854216,
			"uri":"Castle.bin"
		}
	]
}
