{
	"asset":{
		"generator":"Khronos glTF Blender I/O v5.1.19",
		"version":"2.0"
	},
	"scene":0,
	"scenes":[
		{
			"name":"Scene",
			"nodes":[
				0
			]
		}
	],
	"nodes":[
		{
			"mesh":0,
			"name":"Chains"
		}
	],
	"meshes":[
		{
			"name":"Node-Mesh.002",
			"primitives":[
				{
					"attributes":{
						"POSITION":0,
						"NORMAL":1
					},
					"indices":2
				}
			]
		}
	],
	"accessors":[
		{
			"bufferView":0,
			"componentType":5126,
			"count":3024,
			"max":[
				0.07614628225564957,
				0.0024289588909596205,
				0.09172780811786652
			],
			"min":[
				-0.08303328603506088,
				-1.8321208953857422,
				-0.0949944481253624
			],
			"type":"VEC3"
		},
		{
			"bufferView":1,
			"componentType":5126,
			"count":3024,
			"type":"VEC3"
		},
		{
			"bufferView":2,
			"componentType":5123,
			"count":18144,
			"type":"SCALAR"
		}
	],
	"bufferViews":[
		{
			"buffer":0,
			"byteLength":36288,
			"byteOffset":0,
			"target":34962
		},
		{
			"buffer":0,
			"byteLength":36288,
			"byteOffset":36288,
			"target":34962
		},
		{
			"buffer":0,
			"byteLength":36288,
			"byteOffset":72576,
			"target":34963
		}
	],
	"buffers":[
		{
			"byteLength":108864,
			"uri":"Chains.bin"
		}
	]
}
