{
	"asset":{
		"generator":"Khronos glTF Blender I/O v5.1.19",
		"version":"2.0"
	},
	"scene":0,
	"scenes":[
		{
			"name":"Scene",
			"nodes":[
				0
			]
		}
	],
	"nodes":[
		{
			"mesh":0,
			"name":"Coffin"
		}
	],
	"meshes":[
		{
			"name":"coffin_decorated",
			"primitives":[
				{
					"attributes":{
						"POSITION":0,
						"NORMAL":1,
						"TEXCOORD_0":2,
						"TANGENT":3
					},
					"indices":4
				}
			]
		}
	],
	"accessors":[
		{
			"bufferView":0,
			"componentType":5126,
			"count":2206,
			"max":[
				1,
				0.9025096893310547,
				1.5000001192092896
			],
			"min":[
				-1,
				-1.668930025289228e-07,
				-1.5
			],
			"type":"VEC3"
		},
		{
			"bufferView":1,
			"componentType":5126,
			"count":2206,
			"type":"VEC3"
		},
		{
			"bufferView":2,
			"componentType":5126,
			"count":2206,
			"type":"VEC2"
		},
		{
			"bufferView":3,
			"componentType":5126,
			"count":2206,
			"type":"VEC4"
		},
		{
			"bufferView":4,
			"componentType":5123,
			"count":6192,
			"type":"SCALAR"
		}
	],
	"bufferViews":[
		{
			"buffer":0,
			"byteLength":26472,
			"byteOffset":0,
			"target":34962
		},
		{
			"buffer":0,
			"byteLength":26472,
			"byteOffset":26472,
			"target":34962
		},
		{
			"buffer":0,
			"byteLength":17648,
			"byteOffset":52944,
			"target":34962
		},
		{
			"buffer":0,
			"byteLength":35296,
			"byteOffset":70592,
			"target":34962
		},
		{
			"buffer":0,
			"byteLength":12384,
			"byteOffset":105888,
			"target":34963
		}
	],
	"buffers":[
		{
			"byteLength":118272,
			"uri":"Coffin.bin"
		}
	]
}
