{
	"asset":{
		"generator":"Khronos glTF Blender I/O v5.1.19",
		"version":"2.0"
	},
	"scene":0,
	"scenes":[
		{
			"name":"Scene",
			"nodes":[
				0
			]
		}
	],
	"nodes":[
		{
			"mesh":0,
			"name":"Door"
		}
	],
	"meshes":[
		{
			"name":"Plane.006",
			"primitives":[
				{
					"attributes":{
						"POSITION":0,
						"NORMAL":1,
						"TEXCOORD_0":2,
						"TANGENT":3
					},
					"indices":4
				}
			]
		}
	],
	"accessors":[
		{
			"bufferView":0,
			"componentType":5126,
			"count":2380,
			"max":[
				1.8753975629806519,
				7.510799884796143,
				1.6099961996078491
			],
			"min":[
				-1.8753975629806519,
				0,
				1.0894795656204224
			],
			"type":"VEC3"
		},
		{
			"bufferView":1,
			"componentType":5126,
			"count":2380,
			"type":"VEC3"
		},
		{
			"bufferView":2,
			"componentType":5126,
			"count":2380,
			"type":"VEC2"
		},
		{
			"bufferView":3,
			"componentType":5126,
			"count":2380,
			"type":"VEC4"
		},
		{
			"bufferView":4,
			"componentType":5123,
			"count":3570,
			"type":"SCALAR"
		}
	],
	"bufferViews":[
		{
			"buffer":0,
			"byteLength":28560,
			"byteOffset":0,
			"target":34962
		},
		{
			"buffer":0,
			"byteLength":28560,
			"byteOffset":28560,
			"target":34962
		},
		{
			"buffer":0,
			"byteLength":19040,
			"byteOffset":57120,
			"target":34962
		},
		{
			"buffer":0,
			"byteLength":38080,
			"byteOffset":76160,
			"target":34962
		},
		{
			"buffer":0,
			"byteLength":7140,
			"byteOffset":114240,
			"target":34963
		}
	],
	"buffers":[
		{
			"byteLength":121380,
			"uri":"Door.bin"
		}
	]
}
