{
	"asset":{
		"generator":"Khronos glTF Blender I/O v5.1.19",
		"version":"2.0"
	},
	"scene":0,
	"scenes":[
		{
			"name":"Scene",
			"nodes":[
				0
			]
		}
	],
	"nodes":[
		{
			"mesh":0,
			"name":"Grass"
		}
	],
	"meshes":[
		{
			"name":"Grass_Common_Short",
			"primitives":[
				{
					"attributes":{
						"POSITION":0,
						"NORMAL":1,
						"TEXCOORD_0":2,
						"TANGENT":3,
						"COLOR_0":4
					},
					"indices":5
				}
			]
		}
	],
	"accessors":[
		{
			"bufferView":0,
			"componentType":5126,
			"count":153,
			"max":[
				0.2832280695438385,
				1.311718225479126,
				0.25788721442222595
			],
			"min":[
				-0.3556423783302307,
				-0.022385215386748314,
				-0.47937828302383423
			],
			"type":"VEC3"
		},
		{
			"bufferView":1,
			"componentType":5126,
			"count":153,
			"type":"VEC3"
		},
		{
			"bufferView":2,
			"componentType":5126,
			"count":153,
			"type":"VEC2"
		},
		{
			"bufferView":3,
			"componentType":5126,
			"count":153,
			"type":"VEC4"
		},
		{
			"bufferView":4,
			"componentType":5123,
			"count":153,
			"normalized":true,
			"type":"VEC4"
		},
		{
			"bufferView":5,
			"componentType":5123,
			"count":465,
			"type":"SCALAR"
		}
	],
	"bufferViews":[
		{
			"buffer":0,
			"byteLength":1836,
			"byteOffset":0,
			"target":34962
		},
		{
			"buffer":0,
			"byteLength":1836,
			"byteOffset":1836,
			"target":34962
		},
		{
			"buffer":0,
			"byteLength":1224,
			"byteOffset":3672,
			"target":34962
		},
		{
			"buffer":0,
			"byteLength":2448,
			"byteOffset":4896,
			"target":34962
		},
		{
			"buffer":0,
			"byteLength":1224,
			"byteOffset":7344,
			"target":34962
		},
		{
			"buffer":0,
			"byteLength":930,
			"byteOffset":8568,
			"target":34963
		}
	],
	"buffers":[
		{
			"byteLength":9500,
			"uri":"Grass.bin"
		}
	]
}
