{
	"asset":{
		"generator":"Khronos glTF Blender I/O v5.1.19",
		"version":"2.0"
	},
	"scene":0,
	"scenes":[
		{
			"name":"Scene",
			"nodes":[
				0
			]
		}
	],
	"nodes":[
		{
			"mesh":0,
			"name":"Chain Hook"
		}
	],
	"meshes":[
		{
			"name":"mesh928484989",
			"primitives":[
				{
					"attributes":{
						"POSITION":0,
						"NORMAL":1,
						"TEXCOORD_0":2,
						"TANGENT":3
					},
					"indices":4
				}
			]
		}
	],
	"accessors":[
		{
			"bufferView":0,
			"componentType":5126,
			"count":6544,
			"max":[
				0.32300493121147156,
				0.0006069394294172525,
				0.10975835472345352
			],
			"min":[
				-0.32870766520500183,
				-2.641341209411621,
				-0.08661825954914093
			],
			"type":"VEC3"
		},
		{
			"bufferView":1,
			"componentType":5126,
			"count":6544,
			"type":"VEC3"
		},
		{
			"bufferView":2,
			"componentType":5126,
			"count":6544,
			"type":"VEC2"
		},
		{
			"bufferView":3,
			"componentType":5126,
			"count":6544,
			"type":"VEC4"
		},
		{
			"bufferView":4,
			"componentType":5123,
			"count":10836,
			"type":"SCALAR"
		}
	],
	"bufferViews":[
		{
			"buffer":0,
			"byteLength":78528,
			"byteOffset":0,
			"target":34962
		},
		{
			"buffer":0,
			"byteLength":78528,
			"byteOffset":78528,
			"target":34962
		},
		{
			"buffer":0,
			"byteLength":52352,
			"byteOffset":157056,
			"target":34962
		},
		{
			"buffer":0,
			"byteLength":104704,
			"byteOffset":209408,
			"target":34962
		},
		{
			"buffer":0,
			"byteLength":21672,
			"byteOffset":314112,
			"target":34963
		}
	],
	"buffers":[
		{
			"byteLength":335784,
			"uri":"Hook%20and%20Chain.bin"
		}
	]
}
