{
	"asset":{
		"generator":"Khronos glTF Blender I/O v5.1.19",
		"version":"2.0"
	},
	"scene":0,
	"scenes":[
		{
			"name":"Scene",
			"nodes":[
				0
			]
		}
	],
	"nodes":[
		{
			"mesh":0,
			"name":"floor",
			"translation":[
				0,
				0,
				40
			]
		}
	],
	"meshes":[
		{
			"name":"Plane.007",
			"primitives":[
				{
					"attributes":{
						"POSITION":0,
						"NORMAL":1,
						"TEXCOORD_0":2
					},
					"indices":3
				}
			]
		}
	],
	"accessors":[
		{
			"bufferView":0,
			"componentType":5126,
			"count":3094,
			"max":[
				45,
				0,
				40
			],
			"min":[
				-45,
				-7.000007629394531,
				-40
			],
			"type":"VEC3"
		},
		{
			"bufferView":1,
			"componentType":5126,
			"count":3094,
			"type":"VEC3"
		},
		{
			"bufferView":2,
			"componentType":5126,
			"count":3094,
			"type":"VEC2"
		},
		{
			"bufferView":3,
			"componentType":5123,
			"count":4056,
			"type":"SCALAR"
		}
	],
	"bufferViews":[
		{
			"buffer":0,
			"byteLength":37128,
			"byteOffset":0,
			"target":34962
		},
		{
			"buffer":0,
			"byteLength":37128,
			"byteOffset":37128,
			"target":34962
		},
		{
			"buffer":0,
			"byteLength":24752,
			"byteOffset":74256,
			"target":34962
		},
		{
			"buffer":0,
			"byteLength":8112,
			"byteOffset":99008,
			"target":34963
		}
	],
	"buffers":[
		{
			"byteLength":107120,
			"uri":"Labyrinth%20Floor.bin"
		}
	]
}
