{
	"asset":{
		"generator":"Khronos glTF Blender I/O v5.1.19",
		"version":"2.0"
	},
	"scene":0,
	"scenes":[
		{
			"name":"Scene",
			"nodes":[
				0
			]
		}
	],
	"nodes":[
		{
			"mesh":0,
			"name":"Lever_Base"
		}
	],
	"meshes":[
		{
			"name":"Cylinder.010",
			"primitives":[
				{
					"attributes":{
						"POSITION":0,
						"NORMAL":1,
						"TEXCOORD_0":2,
						"TANGENT":3
					},
					"indices":4
				}
			]
		}
	],
	"accessors":[
		{
			"bufferView":0,
			"componentType":5126,
			"count":470,
			"max":[
				0.628517210483551,
				1,
				0.9999999403953552
			],
			"min":[
				-0.628517210483551,
				0,
				-0.9999999403953552
			],
			"type":"VEC3"
		},
		{
			"bufferView":1,
			"componentType":5126,
			"count":470,
			"type":"VEC3"
		},
		{
			"bufferView":2,
			"componentType":5126,
			"count":470,
			"type":"VEC2"
		},
		{
			"bufferView":3,
			"componentType":5126,
			"count":470,
			"type":"VEC4"
		},
		{
			"bufferView":4,
			"componentType":5123,
			"count":846,
			"type":"SCALAR"
		}
	],
	"bufferViews":[
		{
			"buffer":0,
			"byteLength":5640,
			"byteOffset":0,
			"target":34962
		},
		{
			"buffer":0,
			"byteLength":5640,
			"byteOffset":5640,
			"target":34962
		},
		{
			"buffer":0,
			"byteLength":3760,
			"byteOffset":11280,
			"target":34962
		},
		{
			"buffer":0,
			"byteLength":7520,
			"byteOffset":15040,
			"target":34962
		},
		{
			"buffer":0,
			"byteLength":1692,
			"byteOffset":22560,
			"target":34963
		}
	],
	"buffers":[
		{
			"byteLength":24252,
			"uri":"Lever_Base.bin"
		}
	]
}
