{
	"asset":{
		"generator":"Khronos glTF Blender I/O v5.1.19",
		"version":"2.0"
	},
	"scene":0,
	"scenes":[
		{
			"name":"Scene",
			"nodes":[
				0
			]
		}
	],
	"nodes":[
		{
			"mesh":0,
			"name":"Lever_Handle.002",
			"translation":[
				1.8551956415176392,
				-0.10444052517414093,
				-0.08690517395734787
			]
		}
	],
	"meshes":[
		{
			"name":"Cylinder.023",
			"primitives":[
				{
					"attributes":{
						"POSITION":0,
						"NORMAL":1,
						"TEXCOORD_0":2,
						"TANGENT":3
					},
					"indices":4
				}
			]
		}
	],
	"accessors":[
		{
			"bufferView":0,
			"componentType":5126,
			"count":83,
			"max":[
				0.19433894753456116,
				1.9457144737243652,
				0.18557050824165344
			],
			"min":[
				-0.19590580463409424,
				0.367775022983551,
				-0.18557050824165344
			],
			"type":"VEC3"
		},
		{
			"bufferView":1,
			"componentType":5126,
			"count":83,
			"type":"VEC3"
		},
		{
			"bufferView":2,
			"componentType":5126,
			"count":83,
			"type":"VEC2"
		},
		{
			"bufferView":3,
			"componentType":5126,
			"count":83,
			"type":"VEC4"
		},
		{
			"bufferView":4,
			"componentType":5123,
			"count":246,
			"type":"SCALAR"
		}
	],
	"bufferViews":[
		{
			"buffer":0,
			"byteLength":996,
			"byteOffset":0,
			"target":34962
		},
		{
			"buffer":0,
			"byteLength":996,
			"byteOffset":996,
			"target":34962
		},
		{
			"buffer":0,
			"byteLength":664,
			"byteOffset":1992,
			"target":34962
		},
		{
			"buffer":0,
			"byteLength":1328,
			"byteOffset":2656,
			"target":34962
		},
		{
			"buffer":0,
			"byteLength":492,
			"byteOffset":3984,
			"target":34963
		}
	],
	"buffers":[
		{
			"byteLength":4476,
			"uri":"Lever_Handle_smooth.bin"
		}
	]
}
