{
	"asset":{
		"generator":"Khronos glTF Blender I/O v5.1.19",
		"version":"2.0"
	},
	"scene":0,
	"scenes":[
		{
			"name":"Scene",
			"nodes":[
				0
			]
		}
	],
	"nodes":[
		{
			"mesh":0,
			"name":"Mage"
		}
	],
	"meshes":[
		{
			"name":"Capsule.001",
			"primitives":[
				{
					"attributes":{
						"POSITION":0,
						"NORMAL":1,
						"TEXCOORD_0":2,
						"TANGENT":3
					},
					"indices":4
				}
			]
		}
	],
	"accessors":[
		{
			"bufferView":0,
			"componentType":5126,
			"count":2069,
			"max":[
				0.767606258392334,
				3.285374402999878,
				0.780132532119751
			],
			"min":[
				-0.7676066160202026,
				0.8788865804672241,
				-0.7443183660507202
			],
			"type":"VEC3"
		},
		{
			"bufferView":1,
			"componentType":5126,
			"count":2069,
			"type":"VEC3"
		},
		{
			"bufferView":2,
			"componentType":5126,
			"count":2069,
			"type":"VEC2"
		},
		{
			"bufferView":3,
			"componentType":5126,
			"count":2069,
			"type":"VEC4"
		},
		{
			"bufferView":4,
			"componentType":5123,
			"count":7824,
			"type":"SCALAR"
		}
	],
	"bufferViews":[
		{
			"buffer":0,
			"byteLength":24828,
			"byteOffset":0,
			"target":34962
		},
		{
			"buffer":0,
			"byteLength":24828,
			"byteOffset":24828,
			"target":34962
		},
		{
			"buffer":0,
			"byteLength":16552,
			"byteOffset":49656,
			"target":34962
		},
		{
			"buffer":0,
			"byteLength":33104,
			"byteOffset":66208,
			"target":34962
		},
		{
			"buffer":0,
			"byteLength":15648,
			"byteOffset":99312,
			"target":34963
		}
	],
	"buffers":[
		{
			"byteLength":114960,
			"uri":"Mage.bin"
		}
	]
}
