{
	"asset":{
		"generator":"Khronos glTF Blender I/O v5.1.19",
		"version":"2.0"
	},
	"scene":0,
	"scenes":[
		{
			"name":"Scene",
			"nodes":[
				0
			]
		}
	],
	"nodes":[
		{
			"mesh":0,
			"name":"Bones"
		}
	],
	"meshes":[
		{
			"name":"Pile_of_Bones_Cube.003-Mesh",
			"primitives":[
				{
					"attributes":{
						"POSITION":0,
						"NORMAL":1,
						"TEXCOORD_0":2,
						"TANGENT":3
					},
					"indices":4
				}
			]
		}
	],
	"accessors":[
		{
			"bufferView":0,
			"componentType":5126,
			"count":688,
			"max":[
				0.6056790351867676,
				0.32390493154525757,
				0.5345439314842224
			],
			"min":[
				-0.5746753215789795,
				-0.0038085761480033398,
				-0.5335433483123779
			],
			"type":"VEC3"
		},
		{
			"bufferView":1,
			"componentType":5126,
			"count":688,
			"type":"VEC3"
		},
		{
			"bufferView":2,
			"componentType":5126,
			"count":688,
			"type":"VEC2"
		},
		{
			"bufferView":3,
			"componentType":5126,
			"count":688,
			"type":"VEC4"
		},
		{
			"bufferView":4,
			"componentType":5123,
			"count":948,
			"type":"SCALAR"
		}
	],
	"bufferViews":[
		{
			"buffer":0,
			"byteLength":8256,
			"byteOffset":0,
			"target":34962
		},
		{
			"buffer":0,
			"byteLength":8256,
			"byteOffset":8256,
			"target":34962
		},
		{
			"buffer":0,
			"byteLength":5504,
			"byteOffset":16512,
			"target":34962
		},
		{
			"buffer":0,
			"byteLength":11008,
			"byteOffset":22016,
			"target":34962
		},
		{
			"buffer":0,
			"byteLength":1896,
			"byteOffset":33024,
			"target":34963
		}
	],
	"buffers":[
		{
			"byteLength":34920,
			"uri":"Pile%20of%20Bones.bin"
		}
	]
}
