{
	"asset":{
		"generator":"Khronos glTF Blender I/O v5.1.19",
		"version":"2.0"
	},
	"scene":0,
	"scenes":[
		{
			"name":"Scene",
			"nodes":[
				0
			]
		}
	],
	"nodes":[
		{
			"mesh":0,
			"name":"Skeleton_crawl"
		}
	],
	"meshes":[
		{
			"name":"Cylinder.007",
			"primitives":[
				{
					"attributes":{
						"POSITION":0,
						"NORMAL":1
					},
					"indices":2
				}
			]
		}
	],
	"accessors":[
		{
			"bufferView":0,
			"componentType":5126,
			"count":1503,
			"max":[
				0.7187975645065308,
				1.4631805419921875,
				1.84603750705719
			],
			"min":[
				-1.0478395223617554,
				-0.038744136691093445,
				-1.0237886905670166
			],
			"type":"VEC3"
		},
		{
			"bufferView":1,
			"componentType":5126,
			"count":1503,
			"type":"VEC3"
		},
		{
			"bufferView":2,
			"componentType":5123,
			"count":5430,
			"type":"SCALAR"
		}
	],
	"bufferViews":[
		{
			"buffer":0,
			"byteLength":18036,
			"byteOffset":0,
			"target":34962
		},
		{
			"buffer":0,
			"byteLength":18036,
			"byteOffset":18036,
			"target":34962
		},
		{
			"buffer":0,
			"byteLength":10860,
			"byteOffset":36072,
			"target":34963
		}
	],
	"buffers":[
		{
			"byteLength":46932,
			"uri":"Skeleton_crawl.bin"
		}
	]
}
