{
	"asset":{
		"generator":"Khronos glTF Blender I/O v5.1.19",
		"version":"2.0"
	},
	"scene":0,
	"scenes":[
		{
			"name":"Scene",
			"nodes":[
				0
			]
		}
	],
	"nodes":[
		{
			"mesh":0,
			"name":"Skeleton_lean"
		}
	],
	"meshes":[
		{
			"name":"Cylinder.006",
			"primitives":[
				{
					"attributes":{
						"POSITION":0,
						"NORMAL":1
					},
					"indices":2
				}
			]
		}
	],
	"accessors":[
		{
			"bufferView":0,
			"componentType":5126,
			"count":1586,
			"max":[
				0.7342013716697693,
				2.154500722885132,
				1.0496270656585693
			],
			"min":[
				-0.9360791444778442,
				-0.054809801280498505,
				-0.43004435300827026
			],
			"type":"VEC3"
		},
		{
			"bufferView":1,
			"componentType":5126,
			"count":1586,
			"type":"VEC3"
		},
		{
			"bufferView":2,
			"componentType":5123,
			"count":5430,
			"type":"SCALAR"
		}
	],
	"bufferViews":[
		{
			"buffer":0,
			"byteLength":19032,
			"byteOffset":0,
			"target":34962
		},
		{
			"buffer":0,
			"byteLength":19032,
			"byteOffset":19032,
			"target":34962
		},
		{
			"buffer":0,
			"byteLength":10860,
			"byteOffset":38064,
			"target":34963
		}
	],
	"buffers":[
		{
			"byteLength":48924,
			"uri":"Skeleton_lean.bin"
		}
	]
}
