{
	"asset":{
		"generator":"Khronos glTF Blender I/O v5.1.19",
		"version":"2.0"
	},
	"scene":0,
	"scenes":[
		{
			"name":"Scene",
			"nodes":[
				0
			]
		}
	],
	"nodes":[
		{
			"mesh":0,
			"name":"Spooky Tree"
		}
	],
	"meshes":[
		{
			"name":"Node-Mesh",
			"primitives":[
				{
					"attributes":{
						"POSITION":0,
						"NORMAL":1,
						"TEXCOORD_0":2,
						"TANGENT":3
					},
					"indices":4
				}
			]
		}
	],
	"accessors":[
		{
			"bufferView":0,
			"componentType":5126,
			"count":3349,
			"max":[
				1.1456552743911743,
				6.454581260681152,
				1.9776626825332642
			],
			"min":[
				-1.3948713541030884,
				-0.25119149684906006,
				-2.541275978088379
			],
			"type":"VEC3"
		},
		{
			"bufferView":1,
			"componentType":5126,
			"count":3349,
			"type":"VEC3"
		},
		{
			"bufferView":2,
			"componentType":5126,
			"count":3349,
			"type":"VEC2"
		},
		{
			"bufferView":3,
			"componentType":5126,
			"count":3349,
			"type":"VEC4"
		},
		{
			"bufferView":4,
			"componentType":5123,
			"count":4056,
			"type":"SCALAR"
		}
	],
	"bufferViews":[
		{
			"buffer":0,
			"byteLength":40188,
			"byteOffset":0,
			"target":34962
		},
		{
			"buffer":0,
			"byteLength":40188,
			"byteOffset":40188,
			"target":34962
		},
		{
			"buffer":0,
			"byteLength":26792,
			"byteOffset":80376,
			"target":34962
		},
		{
			"buffer":0,
			"byteLength":53584,
			"byteOffset":107168,
			"target":34962
		},
		{
			"buffer":0,
			"byteLength":8112,
			"byteOffset":160752,
			"target":34963
		}
	],
	"buffers":[
		{
			"byteLength":168864,
			"uri":"Spooky%20Tree.bin"
		}
	]
}
