{
	"asset":{
		"generator":"Khronos glTF Blender I/O v5.2.40",
		"version":"2.0"
	},
	"scene":0,
	"scenes":[
		{
			"name":"Scene",
			"nodes":[
				0
			]
		}
	],
	"nodes":[
		{
			"mesh":0,
			"name":"Capsule",
			"translation":[
				0,
				0,
				5
			]
		}
	],
	"meshes":[
		{
			"name":"Capsule",
			"primitives":[
				{
					"attributes":{
						"POSITION":0,
						"NORMAL":1,
						"TEXCOORD_0":2,
						"TANGENT":3
					},
					"indices":4
				}
			]
		}
	],
	"accessors":[
		{
			"bufferView":0,
			"componentType":5126,
			"count":2112,
			"max":[
				0.9999996423721313,
				1.5,
				0.9999996423721313
			],
			"min":[
				-0.9999996423721313,
				-1.5,
				-1
			],
			"type":"VEC3"
		},
		{
			"bufferView":1,
			"componentType":5126,
			"count":2112,
			"type":"VEC3"
		},
		{
			"bufferView":2,
			"componentType":5126,
			"count":2112,
			"type":"VEC2"
		},
		{
			"bufferView":3,
			"componentType":5126,
			"count":2112,
			"type":"VEC4"
		},
		{
			"bufferView":4,
			"componentType":5123,
			"count":3072,
			"type":"SCALAR"
		}
	],
	"bufferViews":[
		{
			"buffer":0,
			"byteLength":25344,
			"byteOffset":0,
			"target":34962
		},
		{
			"buffer":0,
			"byteLength":25344,
			"byteOffset":25344,
			"target":34962
		},
		{
			"buffer":0,
			"byteLength":16896,
			"byteOffset":50688,
			"target":34962
		},
		{
			"buffer":0,
			"byteLength":33792,
			"byteOffset":67584,
			"target":34962
		},
		{
			"buffer":0,
			"byteLength":6144,
			"byteOffset":101376,
			"target":34963
		}
	],
	"buffers":[
		{
			"byteLength":107520,
			"uri":"Unit%20Capsule.bin"
		}
	]
}
